<?xml version="1.0" encoding="UTF-8"?>
<svg version="1.1" xmlns="http://www.w3.org/2000/svg" width="512" height="512">
<path d="M0 0 C1.13537201 -0.01416962 2.27074402 -0.02833923 3.44052124 -0.04293823 C5.30293457 -0.03550598 5.30293457 -0.03550598 7.20297241 -0.02792358 C8.51397919 -0.03814545 9.82498596 -0.04836731 11.17572021 -0.05889893 C14.77119483 -0.08568306 18.36624898 -0.08683517 21.96180391 -0.08177233 C24.96834352 -0.07963123 27.97479835 -0.08940484 30.98131979 -0.09898317 C38.08131021 -0.12117896 45.18108907 -0.12204806 52.28109741 -0.10995483 C59.58851427 -0.09789866 66.89515867 -0.12243475 74.20244372 -0.16509497 C80.48717942 -0.20042701 86.77167048 -0.21231337 93.05650175 -0.20581949 C96.80504868 -0.20220619 100.55304578 -0.20733774 104.30150223 -0.23524857 C107.83296715 -0.26055795 111.36323926 -0.25637845 114.89468765 -0.23042679 C116.79405124 -0.22350216 118.69345249 -0.24594625 120.59268188 -0.26956177 C128.57081191 -0.17243161 134.21380017 1.35637257 140.42318726 6.52139282 C144.17628867 10.83628725 146.29736772 14.58766192 147.49545288 20.18618774 C147.67064453 20.99770798 147.84583618 21.80922821 148.02633667 22.64533997 C148.15729736 23.26443741 148.28825806 23.88353485 148.42318726 24.52139282 C149.39870922 24.51770565 150.37423119 24.51401848 151.37931442 24.51021957 C175.09774314 24.42148674 198.81615038 24.35572093 222.53470993 24.31414413 C234.00475711 24.29350434 245.47469475 24.26535663 256.94467163 24.21963501 C266.93997241 24.17981068 276.93519388 24.15397032 286.93057179 24.14503884 C292.22482827 24.13981664 297.51885782 24.1275131 302.81304169 24.0984726 C307.79360663 24.07137311 312.77385061 24.06293677 317.75448227 24.0689621 C319.58468493 24.06785941 321.41489805 24.05987306 323.24503708 24.04457092 C325.7401001 24.0247282 328.2339444 24.02943218 330.72903442 24.04037476 C331.45666323 24.02872339 332.18429204 24.01707202 332.93397021 24.00506759 C336.19190998 24.04380527 338.14433925 24.3343327 340.87400818 26.16548157 C342.87074635 29.20201749 342.91633004 31.07170083 342.90420532 34.69699097 C342.91245331 36.59842361 342.91245331 36.59842361 342.92086792 38.53826904 C342.90671222 39.94052503 342.89217299 41.34277719 342.87728882 42.74502563 C342.87616038 44.22342905 342.87679413 45.70183471 342.87905884 47.18023682 C342.88020707 51.19246498 342.85668052 55.20421536 342.82876301 59.21633244 C342.80376731 63.40968978 342.80140881 67.60305793 342.79666138 71.79647827 C342.78422619 79.73671063 342.75139731 87.67672285 342.71126342 95.61685824 C342.66656255 104.65665117 342.64456292 113.69645458 342.62448168 122.73633051 C342.5826651 141.33147612 342.51230255 159.92641677 342.42318726 178.52139282 C343.15126587 178.02550659 343.87934448 177.52962036 344.62948608 177.01870728 C345.59910278 176.37635132 346.56871948 175.73399536 347.56771851 175.07217407 C348.52267212 174.43191284 349.47762573 173.79165161 350.46151733 173.13198853 C355.14933906 170.58268839 359.26834645 170.3117446 364.42318726 171.52139282 C367.63845372 173.00016996 369.89387709 175.0691405 372.42318726 177.52139282 C372.90497437 177.97723755 373.38676147 178.43308228 373.88314819 178.90274048 C386.7582771 191.11952691 386.7582771 191.11952691 387.92709351 197.09951782 C388.07376759 203.78785598 386.77350279 207.04597659 382.77084351 212.32608032 C380.51537806 216.00020085 380.64901088 219.3763235 381.42318726 223.52139282 C382.16267723 226.503972 382.16267723 226.503972 384.42318726 228.52139282 C388.51311825 230.39084232 392.80784878 231.37781384 397.17318726 232.39639282 C401.53138762 233.90500064 404.34914401 236.37330633 406.42318726 240.52139282 C406.65888686 245.03432598 406.65161021 249.55112738 406.66342163 254.06948853 C406.67310536 256.31490428 406.70411683 258.55939594 406.73568726 260.80459595 C406.74221978 262.23753323 406.74746927 263.67047705 406.75131226 265.10342407 C406.76065796 266.4051355 406.77000366 267.70684692 406.77963257 269.04800415 C406.40026442 272.74476491 405.64705167 274.58499569 403.42318726 277.52139282 C399.05598712 280.78016653 394.51088067 281.52776955 389.26303101 282.57998657 C386.01874084 283.65546653 384.59345859 284.92007453 382.42318726 287.52139282 C380.65683314 291.05410105 380.75281359 294.6742935 381.42318726 298.52139282 C382.73757691 300.77579999 382.73757691 300.77579999 384.42318726 302.89639282 C387.61045722 307.24473971 388.34244725 310.53794045 387.98568726 315.90420532 C386.9916845 320.52907927 384.66541343 323.17728524 381.42318726 326.52139282 C380.96734253 327.00317993 380.5114978 327.48496704 380.0418396 327.98135376 C367.82505317 340.85648267 367.82505317 340.85648267 361.84506226 342.02529907 C355.30583215 342.16870324 351.61085567 341.04683719 346.49349976 336.93154907 C343.47070088 334.8726238 340.90074711 334.25618977 337.29037476 334.90420532 C336.30424194 335.27158813 336.30424194 335.27158813 335.29818726 335.64639282 C334.63560913 335.87584595 333.97303101 336.10529907 333.29037476 336.34170532 C329.83507794 338.52475896 328.66305883 341.61036543 327.64974976 345.45889282 C327.45123413 346.46951782 327.25271851 347.48014282 327.04818726 348.52139282 C325.83200681 353.75289917 324.72425634 356.32316196 320.42318726 359.52139282 C315.94981444 361.75807923 309.85110696 360.74861942 304.87509155 360.7616272 C302.6296758 360.77131093 300.38518413 360.80232239 298.13998413 360.83389282 C296.70704685 360.84042535 295.27410303 360.84567484 293.84115601 360.84951782 C292.53944458 360.85886353 291.23773315 360.86820923 289.89657593 360.87783813 C286.18554506 360.49700556 284.35382473 359.78168794 281.42318726 357.52139282 C280.76318726 356.53139282 280.10318726 355.54139282 279.42318726 354.52139282 C279.42098742 355.70637423 279.42098742 355.70637423 279.41874313 356.91529465 C279.38170964 376.12745991 279.32274101 395.33944282 279.23928452 414.55146408 C279.19945602 423.84222457 279.16708294 433.13289989 279.15219116 442.42373657 C279.13919434 450.52057645 279.11228029 458.61722923 279.06857419 466.71396375 C279.04591485 471.00213131 279.03027924 475.29006773 279.03130341 479.57830048 C279.03204739 483.61346166 279.0142026 487.64811101 278.98201942 491.6831398 C278.97349155 493.16498863 278.97179005 494.64689467 278.97738457 496.12875748 C278.98400141 498.15050797 278.96378392 500.17229343 278.94216919 502.19393921 C278.93848202 503.32590099 278.93479485 504.45786278 278.93099594 505.62412643 C278.29289511 509.2647654 277.29430429 510.24528514 274.42318726 512.52139282 C271.72525787 513.02278948 271.72525787 513.02278948 268.5697937 513.02475739 C267.36600822 513.03518837 266.16222275 513.04561936 264.92195892 513.05636644 C263.58447534 513.04771803 262.24699415 513.03869139 260.90951538 513.02932739 C259.48997609 513.03393502 258.07044156 513.040287 256.65091705 513.04823637 C252.74540616 513.06497218 248.840285 513.05666427 244.93477249 513.0442915 C240.72474748 513.0352606 236.51479063 513.04920096 232.30477905 513.06021118 C224.05551644 513.07802202 215.80639919 513.07414504 207.55713081 513.06256062 C200.85434905 513.05353664 194.15160811 513.0522978 187.44882202 513.05665588 C186.49579461 513.05726882 185.54276719 513.05788175 184.56086016 513.05851325 C182.62496121 513.05979212 180.68906227 513.06108897 178.75316334 513.06240362 C160.58909242 513.07381693 142.42510219 513.06068394 124.2610445 513.03920215 C108.66661417 513.02133049 93.07230294 513.02443439 77.47787476 513.0428772 C59.37996204 513.06427066 41.28212007 513.07271822 23.18419647 513.06042814 C21.25531516 513.05915391 19.32643383 513.05789643 17.39755249 513.05665588 C15.97388579 513.05573023 15.97388579 513.05573023 14.52145815 513.05478588 C7.82470283 513.0513284 1.12799228 513.05716988 -5.5687561 513.0665741 C-13.72698404 513.07777854 -21.88505797 513.07478687 -30.0432682 513.05345112 C-34.20782576 513.04291967 -38.37212632 513.0388543 -42.53668213 513.05204773 C-46.34631622 513.06393446 -50.15545422 513.0574713 -53.96504307 513.03613752 C-55.34586882 513.03165556 -56.72673617 513.03397338 -58.10753536 513.04364067 C-59.97946809 513.05574494 -61.85151761 513.0409777 -63.72341919 513.02475739 C-65.28537395 513.02378327 -65.28537395 513.02378327 -66.87888336 513.02278948 C-70.34480736 512.37866487 -71.51502454 511.35300052 -73.57681274 508.52139282 C-74.0782094 506.13124084 -74.0782094 506.13124084 -74.08017731 503.41763306 C-74.0906083 502.38105057 -74.10103929 501.34446808 -74.11178637 500.276474 C-74.10286348 499.13913315 -74.09394059 498.0017923 -74.08474731 496.82998657 C-74.09098728 495.62065964 -74.09722724 494.4113327 -74.10365629 493.1653595 C-74.11686821 489.80693809 -74.11209037 486.44940909 -74.09971142 483.09104156 C-74.09067543 479.46997477 -74.1046234 475.84898698 -74.1156311 472.22793579 C-74.13343653 465.13371204 -74.1295674 458.03965737 -74.11798054 450.94542694 C-74.10895442 445.18085846 -74.10771865 439.41633743 -74.11207581 433.65176392 C-74.11268874 432.83195384 -74.11330167 432.01214376 -74.11393318 431.16749096 C-74.11521205 429.50216801 -74.1165089 427.83684507 -74.11782354 426.17152214 C-74.12923526 410.54833205 -74.11610637 394.92523578 -74.09462208 379.30206108 C-74.07675054 365.89074967 -74.07985448 352.47957674 -74.09829712 339.06826782 C-74.1196934 323.50176207 -74.12813657 307.93533859 -74.11584806 292.36882019 C-74.11457384 290.70955405 -74.11331636 289.0502879 -74.11207581 287.39102173 C-74.1114587 286.57458789 -74.1108416 285.75815405 -74.1102058 284.91697979 C-74.10674916 279.15798153 -74.11258798 273.39903536 -74.12199402 267.64004517 C-74.13320161 260.62365936 -74.13020023 253.60745259 -74.10887104 246.59108734 C-74.09834374 243.00979252 -74.094267 239.42879641 -74.10746765 235.84750366 C-74.12154746 231.96909911 -74.10475926 228.09118591 -74.08474731 224.21279907 C-74.0936702 223.07545822 -74.10259309 221.93811737 -74.11178637 220.76631165 C-74.10135538 219.72972916 -74.09092439 218.69314667 -74.08017731 217.62515259 C-74.0795279 216.72966202 -74.07887849 215.83417145 -74.0782094 214.9115448 C-73.41121363 211.7319838 -72.08234923 210.52383764 -69.57681274 208.52139282 C-66.81796265 208.04037476 -66.81796265 208.04037476 -63.61489868 208.06729126 C-62.41395569 208.06759338 -61.2130127 208.06789551 -59.97567749 208.06820679 C-58.68389587 208.08885193 -57.39211426 208.10949707 -56.06118774 208.13076782 C-54.72169846 208.13823211 -53.38219822 208.14392416 -52.04269409 208.1479187 C-48.52429838 208.16316069 -45.00656759 208.20242865 -41.48843384 208.24673462 C-37.89558913 208.28771918 -34.30263654 208.30593642 -30.70962524 208.32608032 C-23.66508308 208.36892537 -16.62099142 208.43715836 -9.57681274 208.52139282 C-9.58049992 207.47371861 -9.58418709 206.42604439 -9.58798599 205.34662247 C-9.67671285 179.87569896 -9.7424818 154.40479546 -9.78406143 128.93375015 C-9.80470255 116.61622888 -9.83285282 104.29880959 -9.87857056 91.98135376 C-9.9183908 81.24772505 -9.94423427 70.51417018 -9.95316672 59.78046966 C-9.95838961 54.09498059 -9.97069758 48.40970279 -9.99973297 42.72428131 C-10.02682595 37.37601462 -10.03527009 32.02804681 -10.02924347 26.67971802 C-10.03034645 24.71406176 -10.03833657 22.7483958 -10.05363464 20.78279877 C-10.07346689 18.10384211 -10.06877685 15.42602144 -10.05783081 12.74703979 C-10.06948218 11.96493771 -10.08113354 11.18283562 -10.09313798 10.37703347 C-10.05547948 6.97926026 -9.82163133 4.88268724 -7.89529991 2.03987694 C-5.04373438 0.17225523 -3.39731102 0.01414315 0 0 Z " fill="#64C3FE" transform="translate(89.57681274414063,-0.521392822265625)"/>
<path d="M0 0 C1.13537201 -0.01416962 2.27074402 -0.02833923 3.44052124 -0.04293823 C5.30293457 -0.03550598 5.30293457 -0.03550598 7.20297241 -0.02792358 C8.51397919 -0.03814545 9.82498596 -0.04836731 11.17572021 -0.05889893 C14.77119483 -0.08568306 18.36624898 -0.08683517 21.96180391 -0.08177233 C24.96834352 -0.07963123 27.97479835 -0.08940484 30.98131979 -0.09898317 C38.08131021 -0.12117896 45.18108907 -0.12204806 52.28109741 -0.10995483 C59.58851427 -0.09789866 66.89515867 -0.12243475 74.20244372 -0.16509497 C80.48717942 -0.20042701 86.77167048 -0.21231337 93.05650175 -0.20581949 C96.80504868 -0.20220619 100.55304578 -0.20733774 104.30150223 -0.23524857 C107.83296715 -0.26055795 111.36323926 -0.25637845 114.89468765 -0.23042679 C116.79405124 -0.22350216 118.69345249 -0.24594625 120.59268188 -0.26956177 C128.57081191 -0.17243161 134.21380017 1.35637257 140.42318726 6.52139282 C144.17628867 10.83628725 146.29736772 14.58766192 147.49545288 20.18618774 C147.67064453 20.99770798 147.84583618 21.80922821 148.02633667 22.64533997 C148.15729736 23.26443741 148.28825806 23.88353485 148.42318726 24.52139282 C149.39870922 24.51770565 150.37423119 24.51401848 151.37931442 24.51021957 C175.09774314 24.42148674 198.81615038 24.35572093 222.53470993 24.31414413 C234.00475711 24.29350434 245.47469475 24.26535663 256.94467163 24.21963501 C266.93997241 24.17981068 276.93519388 24.15397032 286.93057179 24.14503884 C292.22482827 24.13981664 297.51885782 24.1275131 302.81304169 24.0984726 C307.79360663 24.07137311 312.77385061 24.06293677 317.75448227 24.0689621 C319.58468493 24.06785941 321.41489805 24.05987306 323.24503708 24.04457092 C325.7401001 24.0247282 328.2339444 24.02943218 330.72903442 24.04037476 C331.45666323 24.02872339 332.18429204 24.01707202 332.93397021 24.00506759 C336.19034196 24.04378663 338.14453613 24.33473454 340.87400818 26.16310883 C342.87599393 29.21069127 342.91629031 31.09737494 342.90420532 34.73495483 C342.91245331 36.64900871 342.91245331 36.64900871 342.92086792 38.60173035 C342.90671219 40.0134315 342.89217297 41.42512885 342.87728882 42.83682251 C342.87616039 44.32507802 342.87679412 45.81333575 342.87905884 47.30158997 C342.8802071 51.34067546 342.85668 55.37928638 342.82876301 59.41826153 C342.80376787 63.63964625 342.80140885 67.86104171 342.79666138 72.08248901 C342.78422603 80.07584462 342.75139692 88.06898155 342.71126342 96.06224084 C342.66656306 105.16249232 342.64456305 114.26275421 342.62448168 123.36308813 C342.58266472 142.08264703 342.51230186 160.80200235 342.42318726 179.52139282 C336.66209438 179.70569319 333.92019199 179.30296499 329.42318726 175.52139282 C326.84812334 172.41355706 326.26736493 169.93722556 325.92318726 166.02139282 C325.57971488 162.12006511 325.03850094 159.58762266 322.42318726 156.52139282 C318.0287153 153.89579251 314.76228235 153.13791902 309.66928101 153.12295532 C307.76952515 153.11715454 307.76952515 153.11715454 305.83139038 153.11123657 C303.86589233 153.12863892 303.86589233 153.12863892 301.86068726 153.14639282 C299.88938843 153.12899048 299.88938843 153.12899048 297.87826538 153.11123657 C295.98044312 153.11703735 295.98044312 153.11703735 294.04428101 153.12295532 C292.89371216 153.12633911 291.74314331 153.1297229 290.55770874 153.13320923 C286.14104064 153.68017568 283.48739302 155.22914296 280.67318726 158.64639282 C279.48671505 161.3752789 279.20565602 163.05041696 278.98568726 165.95889282 C278.58952586 170.45121357 277.51843084 173.10033413 274.42318726 176.52139282 C269.67125636 179.21116503 265.83245894 180.4229381 260.42318726 179.52139282 C258.55542339 178.41068117 256.72444545 177.23699603 254.92318726 176.02139282 C251.57004824 173.76306286 249.69429039 172.57109506 245.67318726 171.83389282 C238.23619205 173.40710335 233.3332752 178.13578369 228.17318726 183.39639282 C227.56217163 183.99580688 226.95115601 184.59522095 226.32162476 185.21279907 C221.99839203 189.56434991 219.00621131 193.54797015 217.79818726 199.70889282 C218.47194314 203.8188037 219.62091206 205.61458479 221.92318726 209.02139282 C224.15680138 212.34236474 225.36969478 214.23447862 226.11068726 218.20889282 C225.04081692 223.36372261 223.60199858 227.97120314 219.18876362 231.11114979 C216.09951254 232.68644341 214.25468246 232.891987 210.8106842 232.88215637 C209.69314255 232.88628036 208.57560089 232.89040436 207.42419434 232.89465332 C206.20787323 232.88386749 204.99155212 232.87308167 203.7383728 232.86196899 C202.45017136 232.86240707 201.16196991 232.86284515 199.83473206 232.86329651 C196.31022097 232.86415605 192.78601715 232.8465372 189.26157737 232.82557464 C185.57537637 232.8068009 181.88916807 232.80505685 178.20292664 232.80149841 C171.22607977 232.79217998 164.2493742 232.76756899 157.2725895 232.73744994 C149.3282674 232.70389961 141.38393849 232.68741834 133.43956316 232.67236364 C117.10068852 232.6410192 100.76195593 232.5882627 84.42318726 232.52139282 C84.08472778 231.76721069 83.74626831 231.01302856 83.39755249 230.23599243 C82.9509729 229.246073 82.50439331 228.25615356 82.04428101 227.23623657 C81.60269653 226.25517944 81.16111206 225.27412231 80.70614624 224.26333618 C77.4582728 217.32197242 73.89420026 213.30306044 66.68927002 210.4319458 C63.01616304 209.40791832 59.85300717 209.2421176 56.04086304 209.20254517 C55.32797623 209.19249954 54.61508942 209.18245392 53.88059998 209.17210388 C51.54324083 209.1414127 49.20599548 209.12427637 46.86849976 209.10733032 C45.24038727 209.08860731 43.61228438 209.06903306 41.98419189 209.04864502 C37.71324327 208.99743737 33.44226322 208.95775104 29.1711731 208.92050171 C24.80718282 208.88039057 20.44332196 208.82933074 16.07943726 208.77920532 C7.52744252 208.68258071 -1.02461657 208.59813313 -9.57681274 208.52139282 C-9.67017921 181.99221411 -9.74075426 155.46305996 -9.78406143 128.93375015 C-9.80470255 116.61622888 -9.83285282 104.29880959 -9.87857056 91.98135376 C-9.9183908 81.24772505 -9.94423427 70.51417018 -9.95316672 59.78046966 C-9.95838961 54.09498059 -9.97069758 48.40970279 -9.99973297 42.72428131 C-10.02682595 37.37601462 -10.03527009 32.02804681 -10.02924347 26.67971802 C-10.03034645 24.71406176 -10.03833657 22.7483958 -10.05363464 20.78279877 C-10.07346689 18.10384211 -10.06877685 15.42602144 -10.05783081 12.74703979 C-10.06948218 11.96493771 -10.08113354 11.18283562 -10.09313798 10.37703347 C-10.05547948 6.97926026 -9.82163133 4.88268724 -7.89529991 2.03987694 C-5.04373438 0.17225523 -3.39731102 0.01414315 0 0 Z " fill="#FEDF94" transform="translate(89.57681274414063,-0.521392822265625)"/>
<path d="M0 0 C1.30195313 -0.01998047 2.60390625 -0.03996094 3.9453125 -0.06054688 C11.00439388 -0.0569453 15.96908757 0.02392672 21.625 4.4375 C24.80925634 8.15246573 24.9238764 11.60910755 25.328125 16.2890625 C25.90150323 20.43851024 27.68527273 22.68049748 30.875 25.25 C34.64118625 26.8763077 36.51988695 27.09961501 40.625 26.4375 C42.40760589 25.32128884 44.15495826 24.14789974 45.875 22.9375 C50.73205794 19.66614822 54.21243773 18.38417595 60.078125 18.83984375 C64.63824409 19.90993305 67.30881442 22.22234517 70.625 25.4375 C71.10678711 25.89334473 71.58857422 26.34918945 72.08496094 26.81884766 C84.96008984 39.03563409 84.96008984 39.03563409 86.12890625 45.015625 C86.27558033 51.70396316 84.97531553 54.96208377 80.97265625 60.2421875 C78.7171908 63.91630803 78.85082363 67.29243068 79.625 71.4375 C80.36448997 74.42007918 80.36448997 74.42007918 82.625 76.4375 C86.714931 78.3069495 91.00966153 79.29392102 95.375 80.3125 C99.73320036 81.82110782 102.55095676 84.28941351 104.625 88.4375 C104.8606996 92.95043316 104.85342295 97.46723456 104.86523438 101.9855957 C104.87491811 104.23101145 104.90592957 106.47550312 104.9375 108.72070312 C104.94403252 110.15364041 104.94928202 111.58658423 104.953125 113.01953125 C104.9624707 114.32124268 104.97181641 115.6229541 104.98144531 116.96411133 C104.60207716 120.66087208 103.84886442 122.50110287 101.625 125.4375 C97.25779986 128.69627371 92.71269341 129.44387673 87.46484375 130.49609375 C84.22055358 131.57157371 82.79527133 132.83618171 80.625 135.4375 C78.85864589 138.97020823 78.95462633 142.59040068 79.625 146.4375 C80.93938965 148.69190716 80.93938965 148.69190716 82.625 150.8125 C85.81226997 155.16084689 86.54425999 158.45404762 86.1875 163.8203125 C85.19349724 168.44518645 82.86722617 171.09339242 79.625 174.4375 C79.16915527 174.91928711 78.71331055 175.40107422 78.24365234 175.89746094 C66.02686591 188.77258984 66.02686591 188.77258984 60.046875 189.94140625 C53.50764489 190.08481042 49.81266841 188.96294437 44.6953125 184.84765625 C41.67251362 182.78873098 39.10255986 182.17229695 35.4921875 182.8203125 C34.83476562 183.06523437 34.17734375 183.31015625 33.5 183.5625 C32.83742188 183.79195312 32.17484375 184.02140625 31.4921875 184.2578125 C28.03689068 186.44086614 26.86487157 189.52647261 25.8515625 193.375 C25.65304687 194.385625 25.45453125 195.39625 25.25 196.4375 C24.03381956 201.66900635 22.92606909 204.23926914 18.625 207.4375 C14.15162719 209.67418641 8.0529197 208.6647266 3.0769043 208.67773438 C0.83148855 208.68741811 -1.41300312 208.71842957 -3.65820312 208.75 C-5.09114041 208.75653252 -6.52408423 208.76178202 -7.95703125 208.765625 C-9.25874268 208.7749707 -10.5604541 208.78431641 -11.90161133 208.79394531 C-16.52177772 208.31981563 -19.13851531 206.89478553 -22.125 203.375 C-23.35432259 200.48609193 -23.6360397 198.53019777 -23.875 195.4375 C-24.20340372 191.34461662 -24.51705632 188.58123805 -27.375 185.4375 C-32.14108845 182.77948913 -35.96725735 181.53620956 -41.375 182.4375 C-43.24276387 183.54821165 -45.07374181 184.72189679 -46.875 185.9375 C-50.22813902 188.19582997 -52.10389687 189.38779776 -56.125 190.125 C-63.53110241 188.55832449 -68.42363561 183.86473632 -73.5625 178.625 C-74.16513672 178.03396484 -74.76777344 177.44292969 -75.38867188 176.83398438 C-79.96845703 172.22403598 -83.68608012 167.69421214 -85.0625 161.1875 C-84.16157169 156.27334558 -81.71034325 153.17529607 -78.9453125 149.078125 C-76.86991571 145.58815427 -76.61024417 143.41423029 -77.375 139.4375 C-78.57360141 135.65244291 -79.50809155 133.20241922 -82.5 130.5625 C-85.22084904 129.49781994 -86.83366425 129.31521038 -89.6875 129.1875 C-94.69588948 128.80159394 -97.25260776 126.57544515 -100.84375 123.2265625 C-104.78940922 118.61658311 -103.63608401 111.87015141 -103.67016602 106.15063477 C-103.68735018 104.14250808 -103.73125424 102.13466826 -103.77539062 100.12695312 C-103.78376953 98.85142578 -103.79214844 97.57589844 -103.80078125 96.26171875 C-103.81536377 95.09729248 -103.82994629 93.93286621 -103.8449707 92.7331543 C-103.15322072 87.88227998 -100.92754423 84.72389379 -97.1875 81.625 C-94.51694332 80.49743163 -92.72003976 80.18756154 -89.875 79.9375 C-85.9657545 79.58683678 -83.41064904 79.11601386 -80.375 76.4375 C-77.71698913 71.67141155 -76.47370956 67.84524265 -77.375 62.4375 C-78.48571165 60.56973613 -79.65939679 58.73875819 -80.875 56.9375 C-83.13332997 53.58436098 -84.32529776 51.70860313 -85.0625 47.6875 C-83.49582449 40.28139759 -78.80223632 35.38886439 -73.5625 30.25 C-72.97146484 29.64736328 -72.38042969 29.04472656 -71.77148438 28.42382812 C-67.16153598 23.84404297 -62.63171214 20.12641988 -56.125 18.75 C-51.21084558 19.65092831 -48.11279607 22.10215675 -44.015625 24.8671875 C-40.52565427 26.94258429 -38.35173029 27.20225583 -34.375 26.4375 C-30.58994291 25.23889859 -28.13991922 24.30440845 -25.5 21.3125 C-24.45395757 18.63928046 -24.16001877 16.81699298 -23.9375 14 C-23.55805604 9.52851331 -22.34794772 6.90593901 -19.375 3.4375 C-13.4246718 -0.9323741 -7.10084511 -0.03843961 0 0 Z " fill="#77869B" transform="translate(391.375,151.5625)"/>
<path d="M0 0 C24.70380275 -0.09337275 49.40757911 -0.16394459 74.11152267 -0.20724869 C85.58156985 -0.22788848 97.0515075 -0.25603619 108.52148438 -0.30175781 C118.51678516 -0.34158215 128.51200663 -0.3674225 138.50738454 -0.37635398 C143.80164102 -0.38157618 149.09567057 -0.39387973 154.38985443 -0.42292023 C159.37041937 -0.45001971 164.35066335 -0.45845606 169.33129501 -0.45243073 C171.16149768 -0.45353341 172.9917108 -0.46151976 174.82184982 -0.4768219 C177.31691284 -0.49666462 179.81075714 -0.49196064 182.30584717 -0.48101807 C183.03347598 -0.49266943 183.76110479 -0.5043208 184.51078296 -0.51632524 C189.66785557 -0.45500641 190.02557076 0.02557076 194 4 C194 18.52 194 33.04 194 48 C135.26 48 76.52 48 16 48 C13.49933274 41.74833184 11.09701009 35.59202128 8.984375 29.21875 C8.72368225 28.43858521 8.4629895 27.65842041 8.19439697 26.85461426 C7.65188887 25.22843634 7.11086032 23.6017641 6.57128906 21.97460938 C5.74214602 19.47633533 4.90651377 16.9802943 4.0703125 14.484375 C3.54128121 12.89596166 3.01262149 11.30742451 2.484375 9.71875 C2.23443787 8.97298706 1.98450073 8.22722412 1.72698975 7.4588623 C0 2.23000188 0 2.23000188 0 0 Z " fill="#FFCD7D" transform="translate(238,24)"/>
<path d="M0 0 C9.56851996 8.89020859 15.63939023 19.81688753 16.55078125 32.86328125 C17.00384712 47.55307089 12.85375708 60.20834667 2.83984375 71.09375 C-7.82724456 81.19771902 -20.89115869 85.36406347 -35.38671875 85.09375 C-49.01378857 84.05301913 -59.34179423 77.52722672 -68.66015625 67.84375 C-77.76509495 56.8866289 -80.5232943 43.78183118 -79.66015625 29.84375 C-77.5930556 16.81050523 -70.86637687 6.08723589 -60.66015625 -2.15625 C-41.59436564 -14.65082152 -18.15136561 -14.7130012 0 0 Z " fill="#5E6E84" transform="translate(423.66015625,219.15625)"/>
<path d="M0 0 C40.59 0 81.18 0 123 0 C121.35 1.32 119.7 2.64 118 4 C115.01491638 7.89748695 114.61577561 10.79672093 114.6015625 15.65625 C114.59769531 16.92597656 114.59382813 18.19570312 114.58984375 19.50390625 C114.60144531 20.82261719 114.61304688 22.14132813 114.625 23.5 C114.61339844 24.81871094 114.60179687 26.13742187 114.58984375 27.49609375 C114.59371094 28.76582031 114.59757812 30.03554688 114.6015625 31.34375 C114.60663818 33.07915039 114.60663818 33.07915039 114.61181641 34.84960938 C115.37824569 41.06973735 118.55234089 43.55234089 123 48 C87.69 48 52.38 48 16 48 C13.49933274 41.74833184 11.09701009 35.59202128 8.984375 29.21875 C8.72368225 28.43858521 8.4629895 27.65842041 8.19439697 26.85461426 C7.65188887 25.22843634 7.11086032 23.6017641 6.57128906 21.97460938 C5.74214602 19.47633533 4.90651377 16.9802943 4.0703125 14.484375 C3.54128121 12.89596166 3.01262149 11.30742451 2.484375 9.71875 C2.23443787 8.97298706 1.98450073 8.22722412 1.72698975 7.4588623 C0 2.23000188 0 2.23000188 0 0 Z " fill="#45A9F3" transform="translate(174,232)"/>
<path d="M0 0 C7.36774581 4.87993554 11.24815599 11.71321798 14.0078125 19.9921875 C15.06377973 31.32120731 13.0020281 39.76591024 6.8828125 49.3046875 C-0.88536461 56.56624436 -10.53497408 60.91093349 -20.08618164 65.35253906 C-20.92012451 65.75182617 -21.75406738 66.15111328 -22.61328125 66.5625 C-23.3602124 66.91070801 -24.10714355 67.25891602 -24.87670898 67.61767578 C-27.53410945 69.34429605 -29.12642346 71.45436845 -30.9921875 73.9921875 C-29.8369458 74.00677002 -28.6817041 74.02135254 -27.49145508 74.03637695 C-23.19540838 74.09445572 -18.89988056 74.171688 -14.60424805 74.25463867 C-12.746912 74.28784299 -10.88947613 74.31588891 -9.03198242 74.33862305 C-6.35812952 74.37225192 -3.68518757 74.42457124 -1.01171875 74.48046875 C0.2291877 74.49005363 0.2291877 74.49005363 1.49516296 74.49983215 C6.08836527 74.61632996 9.34198646 74.91292945 13.0078125 77.9921875 C14.17962164 81.94704333 14.4126258 84.06111692 12.7578125 87.8671875 C11.0078125 89.9921875 11.0078125 89.9921875 8.0078125 90.9921875 C6.29592479 91.09467161 4.5803842 91.14063152 2.86547852 91.15332031 C1.29353477 91.16773163 1.29353477 91.16773163 -0.31016541 91.18243408 C-1.44144363 91.18668396 -2.57272186 91.19093384 -3.73828125 91.1953125 C-4.90094009 91.20101257 -6.06359894 91.20671265 -7.26148987 91.21258545 C-9.72192474 91.222036 -12.18237226 91.22856965 -14.64282227 91.23242188 C-18.41119347 91.24213981 -22.17902218 91.27316851 -25.94726562 91.3046875 C-28.33593426 91.3112163 -30.72460679 91.31646725 -33.11328125 91.3203125 C-34.24253525 91.3326593 -35.37178925 91.3450061 -36.53526306 91.35772705 C-37.58637772 91.35472595 -38.63749237 91.35172485 -39.72045898 91.34863281 C-41.10587135 91.35410126 -41.10587135 91.35410126 -42.51927185 91.35968018 C-45.49111466 90.91804341 -46.83860584 90.06152207 -48.9921875 87.9921875 C-51.29465853 81.08477441 -50.16763593 74.95421928 -47.23828125 68.40625 C-41.95512159 58.17116327 -34.05484341 53.44862777 -23.97265625 48.5078125 C-23.0820752 48.07130371 -22.19149414 47.63479492 -21.27392578 47.18505859 C-19.48864776 46.31982868 -17.69675071 45.46809946 -15.89794922 44.63134766 C-10.02152886 41.81861466 -6.46624238 39.30881097 -3.7421875 33.1796875 C-2.45086551 27.69156905 -2.05794059 23.76058344 -4.7421875 18.6796875 C-8.02742077 14.75565887 -10.81374658 12.36149206 -16.04296875 11.75390625 C-21.56583651 11.57267225 -24.69290225 12.19281914 -28.9921875 15.9921875 C-32.10888887 19.6283391 -33.1951899 22.55033107 -33.9296875 27.1796875 C-34.72348312 31.72348312 -34.72348312 31.72348312 -37.1796875 34.1796875 C-40.91857657 35.25981101 -43.26230516 35.09733782 -46.9921875 33.9921875 C-49.72505369 31.17116433 -50.21703217 28.54340153 -50.4296875 24.7421875 C-50.11330791 16.44754002 -45.63081914 8.90465997 -39.9921875 2.9921875 C-27.47757399 -7.1408299 -13.82061554 -7.69873215 0 0 Z " fill="#FF6D9C" transform="translate(169.9921875,93.0078125)"/>
<path d="M0 0 C0.93714844 -0.00257813 1.87429687 -0.00515625 2.83984375 -0.0078125 C7.80437377 0.06260637 11.52949427 0.18039685 15.5 3.5 C16.92666016 6.35332032 16.64307693 8.79188273 16.66113281 11.98168945 C16.66858017 12.97957489 16.66858017 12.97957489 16.67617798 13.99761963 C16.69080622 16.20285063 16.69760326 18.40800966 16.703125 20.61328125 C16.70887667 22.14544171 16.7146344 23.67760215 16.72039795 25.20976257 C16.73091034 28.42524552 16.73675119 31.64070345 16.74023438 34.85620117 C16.74571442 38.9721189 16.76973067 43.08770503 16.79820633 47.20351887 C16.81685251 50.36999977 16.82203939 53.53640119 16.82357025 56.70293236 C16.82659372 58.2199605 16.83461198 59.73698735 16.84775543 61.25396156 C16.86485519 63.3796045 16.86292645 65.5044427 16.85644531 67.63012695 C16.86191376 69.44309013 16.86191376 69.44309013 16.86749268 71.29267883 C16.46500113 74.80545537 15.61281302 76.69272257 13.5 79.5 C10.87121839 80.62276504 8.33903809 80.70605922 5.5 80.5 C2.23288174 78.82455474 1.672189 78.01656699 0.5 74.5 C0.41147181 72.61343185 0.38237778 70.72384476 0.38647461 68.83520508 C0.38655014 67.67422806 0.38662567 66.51325104 0.38670349 65.3170929 C0.39186478 64.06389755 0.39702606 62.81070221 0.40234375 61.51953125 C0.4037587 60.23640549 0.40517365 58.95327972 0.40663147 57.63127136 C0.41044595 54.22329759 0.42026709 50.81536657 0.43133545 47.40740967 C0.44157257 43.92851337 0.44613402 40.44961015 0.45117188 36.97070312 C0.46189033 30.14711788 0.47895391 23.32356099 0.5 16.5 C-0.62148437 16.55220703 -0.62148437 16.55220703 -1.765625 16.60546875 C-2.75046875 16.63253906 -3.7353125 16.65960938 -4.75 16.6875 C-5.72453125 16.72230469 -6.6990625 16.75710938 -7.703125 16.79296875 C-10.90607678 16.45746402 -12.18978717 15.69438508 -14.5 13.5 C-15.28515625 11.6328125 -15.28515625 11.6328125 -15.5625 9.625 C-15.67722656 8.96757812 -15.79195312 8.31015625 -15.91015625 7.6328125 C-14.31531979 -0.66033708 -6.69368514 -0.20255994 0 0 Z " fill="#FDDF94" transform="translate(71.5,391.5)"/>
</svg>
